<svg xmlns="http://www.w3.org/2000/svg" viewBox="0 0 64 64" width="64" height="64">
  <defs>
    <linearGradient id="plgrad" x1="0" y1="0" x2="0" y2="1">
      <stop offset="0" stop-color="#F0D89B"/>
      <stop offset="0.55" stop-color="#C9973A"/>
      <stop offset="1" stop-color="#9A6E25"/>
    </linearGradient>
  </defs>
  <rect width="64" height="64" rx="13" fill="#0D1117"/>
  <g transform="translate(5.1,5.4) scale(0.84)" fill="none">
    <circle cx="32" cy="25" r="13" stroke="url(#plgrad)" stroke-width="2.2"/>
    <g stroke="url(#plgrad)" stroke-width="1" stroke-linecap="round" opacity="0.45">
      <line x1="41.5" y1="15.5" x2="43.6" y2="13.4"/>
      <line x1="22.5" y1="15.5" x2="20.4" y2="13.4"/>
      <line x1="41.5" y1="34.5" x2="43.6" y2="36.6"/>
      <line x1="22.5" y1="34.5" x2="20.4" y2="36.6"/>
    </g>
    <path d="M32 6 L34.6 21 L45 25 L34.6 27.5 L32 52 L29.4 27.5 L19 25 L29.4 21 Z" fill="url(#plgrad)"/>
    <g stroke="url(#plgrad)" stroke-width="1.8" stroke-linecap="round" stroke-linejoin="round">
      <path d="M31 52 Q20 47 10.5 47.5"/>
      <path d="M31 53.8 Q20 49 10.5 49.5"/>
      <path d="M31 55.6 Q20 51 10.5 51.5"/>
      <path d="M33 52 Q44 47 53.5 47.5"/>
      <path d="M33 53.8 Q44 49 53.5 49.5"/>
      <path d="M33 55.6 Q44 51 53.5 51.5"/>
      <path d="M32 51.5 L32 56"/>
    </g>
    <path d="M44.5 55 L48.5 55 L48.5 62 L46.5 59.6 L44.5 62 Z" fill="url(#plgrad)"/>
  </g>
</svg>
